<svg xmlns="http://www.w3.org/2000/svg" viewBox="0 0 512 512" fill="#ffffff">
  <!-- Top Finial -->
  <circle cx="256" cy="74" r="16" />
  <rect x="248" y="90" width="16" height="34" rx="4" />

  <!-- Horizontal Crossbeam -->
  <rect x="68" y="124" width="376" height="28" rx="14" />

  <!-- Fulcrum Pivot Collar -->
  <circle cx="256" cy="138" r="22" />

  <!-- Central Mast / Column -->
  <path d="M 244,142 L 241,388 L 271,388 L 268,142 Z" />

  <!-- Left Suspension Cords -->
  <line x1="96" y1="138" x2="38" y2="280" stroke="#ffffff" stroke-width="18" stroke-linecap="round" />
  <line x1="96" y1="138" x2="154" y2="280" stroke="#ffffff" stroke-width="18" stroke-linecap="round" />

  <!-- Left Scale Pan -->
  <path d="M 32,280 C 32,356 160,356 160,280 Z" />
  <rect x="26" y="274" width="140" height="12" rx="6" />

  <!-- Right Suspension Cords -->
  <line x1="416" y1="138" x2="358" y2="280" stroke="#ffffff" stroke-width="18" stroke-linecap="round" />
  <line x1="416" y1="138" x2="474" y2="280" stroke="#ffffff" stroke-width="18" stroke-linecap="round" />

  <!-- Right Scale Pan -->
  <path d="M 352,280 C 352,356 480,356 480,280 Z" />
  <rect x="346" y="274" width="140" height="12" rx="6" />

  <!-- Tiered Pedestal Base -->
  <path d="M 224,388 L 288,388 L 320,422 L 192,422 Z" />
  <rect x="140" y="422" width="232" height="26" rx="8" />
</svg>
